<?xml version="1.0" encoding="UTF-8"?>
<svg id="Layer_2" data-name="Layer 2" xmlns="http://www.w3.org/2000/svg" viewBox="0 0 395.98 395.98">
  <defs>
    <style>
      .cls-1 {
        fill: #babcbe;
      }

      .cls-1, .cls-2, .cls-3, .cls-4, .cls-5, .cls-6, .cls-7 {
        fill-rule: evenodd;
      }

      .cls-2 {
        fill: #434443;
      }

      .cls-8 {
        fill: #fff;
      }

      .cls-3 {
        fill: #fefefe;
      }

      .cls-4 {
        fill: #5f5f5f;
      }

      .cls-5 {
        fill: #22201e;
      }

      .cls-6 {
        fill: #d5d5d7;
      }

      .cls-7 {
        fill: #ff4653;
      }
    </style>
  </defs>
  <g id="Layer_1-2" data-name="Layer 1">
    <g>
      <path class="cls-8" d="M197.99,395.98c109.35,0,197.99-88.64,197.99-197.99S307.34,0,197.99,0,0,88.64,0,197.99s88.64,197.99,197.99,197.99Z"/>
      <path class="cls-7" d="M353.21,223.75l-129.44-88.95,91.88-41.78c10.25,11.54,18.91,24.74,25.63,39.48,13.52,29.6,16.99,61.32,11.92,91.25ZM229.08,351.91l10.58-99.91-143.8,65.37c36.27,30.89,85.48,44.15,133.22,34.54ZM248.83,346.59c4.8-1.66,9.61-3.51,14.28-5.63,42.75-19.41,72.6-55.68,85.37-97.4l-82.8-56.91-16.85,159.94ZM81.12,303.09l91.76-41.66L43.32,168.59c-1.82,9.57-2.76,19.36-2.76,29.2v.19c0,21.7,4.49,43.71,14.04,64.73,6.92,15.13,15.95,28.65,26.53,40.38ZM145.71,49.14c-4.29,1.53-8.58,3.2-12.88,5.11-41.72,18.97-71.2,54.03-84.45,94.52l82.33,59.03,14.99-158.66ZM166.35,44.07l-10.51,99.9,143.8-65.35c-36.32-30.89-85.54-44.16-133.28-34.55Z"/>
      <path class="cls-3" d="M139.78,110.62c-86.35,57.97-44.9,192.34,58.2,192.34s144.61-134.28,58.21-192.34c-34.93-23.46-81.51-23.45-116.41,0Z"/>
      <path class="cls-6" d="M153.98,131.95c-65.27,43.82-33.93,145.38,44,145.38s109.31-101.49,44-145.38c-26.38-17.74-61.6-17.73-88,0Z"/>
      <path class="cls-4" d="M162.87,145.29c-52.08,34.95-27.08,116,35.11,116s87.21-80.98,35.1-116c-21.06-14.15-49.16-14.15-70.21,0Z"/>
      <path class="cls-2" d="M167.01,151.49c-45.95,30.85-23.9,102.35,30.97,102.35s76.95-71.45,30.97-102.35c-18.57-12.47-43.37-12.46-61.94,0Z"/>
      <path class="cls-5" d="M180.79,172.2c-25.48,17.11-13.25,56.78,17.19,56.78s42.69-39.64,17.18-56.78c-10.31-6.93-24.06-6.93-34.37,0Z"/>
      <path class="cls-1" d="M178.42,187.55c-12.04-8.07-6.26-26.82,8.13-26.82s20.18,18.74,8.12,26.82c-4.87,3.28-11.37,3.28-16.25,0Z"/>
      <path class="cls-3" d="M211.86,228.59c-5.93-3.98-3.08-13.19,3.99-13.19s9.93,9.22,3.99,13.19c-2.38,1.62-5.59,1.62-7.98,0Z"/>
    </g>
  </g>
</svg>