<?xml version="1.0" encoding="UTF-8"?>
<svg id="Layer_2" data-name="Layer 2" xmlns="http://www.w3.org/2000/svg" viewBox="0 0 1592.2 395.98">
  <defs>
    <style>
      .cls-1 {
        fill: #babcbe;
      }

      .cls-1, .cls-2, .cls-3, .cls-4, .cls-5, .cls-6, .cls-7 {
        fill-rule: evenodd;
      }

      .cls-2 {
        fill: #434443;
      }

      .cls-8 {
        fill: #fff;
      }

      .cls-3 {
        fill: #fefefe;
      }

      .cls-4 {
        fill: #5f5f5f;
      }

      .cls-9, .cls-7 {
        fill: #ff4653;
      }

      .cls-5 {
        fill: #22201e;
      }

      .cls-6 {
        fill: #d5d5d7;
      }

      .cls-10 {
        fill: #4a7eff;
      }
    </style>
  </defs>
  <g id="Layer_1-2" data-name="Layer 1">
    <g>
      <path class="cls-8" d="M197.99,395.98c109.35,0,197.99-88.64,197.99-197.99S307.34,0,197.99,0,0,88.64,0,197.99s88.64,197.99,197.99,197.99Z"/>
      <path class="cls-7" d="M353.21,223.75l-129.44-88.95,91.88-41.78c10.25,11.54,18.91,24.74,25.63,39.48,13.52,29.6,16.99,61.32,11.92,91.25ZM229.08,351.91l10.58-99.91-143.8,65.37c36.27,30.89,85.48,44.15,133.22,34.54ZM248.83,346.59c4.8-1.66,9.61-3.51,14.28-5.63,42.75-19.41,72.6-55.68,85.37-97.4l-82.8-56.91-16.85,159.94ZM81.12,303.09l91.76-41.66L43.32,168.59c-1.82,9.57-2.76,19.36-2.76,29.2v.19c0,21.7,4.49,43.71,14.04,64.73,6.92,15.13,15.95,28.65,26.53,40.38ZM145.71,49.14c-4.29,1.53-8.58,3.2-12.88,5.11-41.72,18.97-71.2,54.03-84.45,94.52l82.33,59.03,14.99-158.66ZM166.35,44.07l-10.51,99.9,143.8-65.35c-36.32-30.89-85.54-44.16-133.28-34.55Z"/>
      <path class="cls-3" d="M139.78,110.62c-86.35,57.97-44.9,192.34,58.2,192.34s144.61-134.28,58.21-192.34c-34.93-23.46-81.51-23.45-116.41,0Z"/>
      <path class="cls-6" d="M153.98,131.95c-65.27,43.82-33.93,145.38,44,145.38s109.31-101.49,44-145.38c-26.38-17.74-61.6-17.73-88,0Z"/>
      <path class="cls-4" d="M162.87,145.29c-52.08,34.95-27.08,116,35.11,116s87.21-80.98,35.1-116c-21.06-14.15-49.16-14.15-70.21,0Z"/>
      <path class="cls-2" d="M167.01,151.49c-45.95,30.85-23.9,102.35,30.97,102.35s76.95-71.45,30.97-102.35c-18.57-12.47-43.37-12.46-61.94,0Z"/>
      <path class="cls-5" d="M180.79,172.2c-25.48,17.11-13.25,56.78,17.19,56.78s42.69-39.64,17.18-56.78c-10.31-6.93-24.06-6.93-34.37,0Z"/>
      <path class="cls-1" d="M178.42,187.55c-12.04-8.07-6.26-26.82,8.13-26.82s20.18,18.74,8.12,26.82c-4.87,3.28-11.37,3.28-16.25,0Z"/>
      <path class="cls-3" d="M211.86,228.59c-5.93-3.98-3.08-13.19,3.99-13.19s9.93,9.22,3.99,13.19c-2.38,1.62-5.59,1.62-7.98,0Z"/>
      <path class="cls-9" d="M481.1,301.65v-162.38h-48v-49.56h150.23v49.56h-47.69v162.38h-54.54Z"/>
      <path class="cls-9" d="M591.12,301.65v-161.14h51.43v8.73c6.43-4.57,13.71-8,21.82-10.29,8.11-2.28,16.93-2.91,26.49-1.87v50.49c-16.42-2.28-28.57-.88-36.47,4.21-7.9,5.09-11.84,13.35-11.84,24.78v85.09h-51.43Z"/>
      <path class="cls-9" d="M855.42,140.52v161.14h-51.43v-8.1c-5.61,3.95-11.89,7.01-18.85,9.19-6.97,2.18-14.5,3.27-22.6,3.27-11.85,0-22.29-2.7-31.33-8.1-9.04-5.4-16.11-13.19-21.19-23.38-5.1-10.18-7.64-22.23-7.64-36.15v-97.87h51.43v91.01c0,8.31,1.92,15.01,5.77,20.1,3.84,5.09,9.92,7.64,18.23,7.64s14.75-2.39,19.32-7.17c4.57-4.78,6.86-11.63,6.86-20.57v-91.01h51.43Z"/>
      <path class="cls-9" d="M1019.04,294.17c-14.34,6.03-28.57,9.76-42.7,11.22-14.13,1.45-27.48.67-40.05-2.34-12.58-3.01-23.74-8.15-33.51-15.43-9.76-7.27-17.4-16.52-22.9-27.74-5.51-11.22-8.26-24.2-8.26-38.96,0-12.26,2.02-23.53,6.08-33.82,4.05-10.28,9.82-19.32,17.3-27.12,7.48-7.79,16.31-13.82,26.49-18.08,10.18-4.26,21.3-6.39,33.35-6.39,10.8,0,20.57,1.77,29.3,5.3,8.73,3.54,16.31,8.47,22.75,14.8,6.44,6.34,11.64,13.87,15.59,22.6,3.95,8.73,6.44,18.29,7.48,28.67,1.04,10.39.41,21.4-1.87,33.04h-102.86c3.95,7.9,10.55,13.51,19.79,16.83,9.24,3.33,20.26,4.36,33.04,3.12,12.78-1.25,26.44-4.57,40.98-9.97v44.26ZM953.59,181.66c-6.03,0-11.58,1.67-16.67,4.99-5.09,3.33-8.98,8.41-11.69,15.27h56.41c-2.49-7.06-6.18-12.2-11.06-15.43-4.89-3.22-10.55-4.83-16.99-4.83Z"/>
      <path class="cls-10" d="M1087.91,301.65v-162.38h-47.99v-49.56h150.23v49.56h-47.68v162.38h-54.55Z"/>
      <path class="cls-10" d="M1327.28,294.17c-14.34,6.03-28.57,9.76-42.7,11.22-14.14,1.45-27.48.67-40.06-2.34-12.57-3.01-23.74-8.15-33.5-15.43-9.77-7.27-17.4-16.52-22.9-27.74-5.51-11.22-8.26-24.2-8.26-38.96,0-12.26,2.02-23.53,6.08-33.82,4.05-10.28,9.82-19.32,17.3-27.12,7.48-7.79,16.31-13.82,26.49-18.08,10.18-4.26,21.3-6.39,33.35-6.39,10.8,0,20.57,1.77,29.3,5.3,8.72,3.54,16.31,8.47,22.75,14.8,6.44,6.34,11.64,13.87,15.59,22.6,3.94,8.73,6.44,18.29,7.48,28.67,1.04,10.39.41,21.4-1.87,33.04h-102.86c3.95,7.9,10.54,13.51,19.79,16.83,9.24,3.33,20.26,4.36,33.04,3.12,12.78-1.25,26.44-4.57,40.98-9.97v44.26ZM1261.83,181.66c-6.03,0-11.58,1.67-16.67,4.99-5.09,3.33-8.99,8.42-11.69,15.27h56.41c-2.49-7.06-6.19-12.2-11.06-15.43-4.89-3.22-10.55-4.83-16.99-4.83Z"/>
      <path class="cls-10" d="M1479.06,251.79c0,12.89-3.58,23.43-10.75,31.64-7.16,8.21-16.78,14.18-28.83,17.92-12.05,3.74-25.51,5.35-40.36,4.83-14.86-.52-29.98-2.96-45.35-7.32v-48.62c8.72,3.95,17.45,7.01,26.18,9.19,8.73,2.18,16.62,3.48,23.69,3.9,7.06.42,12.78-.16,17.14-1.71,4.37-1.56,6.55-4.21,6.55-7.95,0-2.91-1.82-5.19-5.45-6.86-3.64-1.66-8.37-3.17-14.18-4.52-5.82-1.35-12-3.01-18.55-4.99-6.54-1.97-12.73-4.78-18.54-8.42-5.82-3.63-10.55-8.52-14.18-14.65-3.64-6.13-5.45-14.07-5.45-23.84,0-11.63,3.37-21.55,10.13-29.76,6.75-8.21,15.84-14.44,27.27-18.7,11.42-4.26,24.2-6.39,38.34-6.39s28.57,2.39,43.32,7.17v48.62c-11.64-5.61-22.55-9.35-32.73-11.22-10.18-1.87-18.39-2.13-24.62-.78-6.24,1.35-9.36,4.21-9.36,8.57,0,2.91,1.82,5.14,5.46,6.7,3.63,1.56,8.31,2.96,14.03,4.21,5.71,1.25,11.84,2.91,18.39,4.99,6.55,2.08,12.67,4.94,18.39,8.57,5.71,3.64,10.39,8.62,14.03,14.96,3.63,6.34,5.45,14.49,5.45,24.47Z"/>
      <path class="cls-10" d="M1511.48,301.65v-115.01h-25.25v-46.13h25.25v-43.01h51.43v43.01h29.3v46.13h-29.3v115.01h-51.43Z"/>
    </g>
  </g>
</svg>